<svg xmlns="http://www.w3.org/2000/svg" width="406.3923034667969" height="399.57177734375" viewBox="-108.2688980102539 -86.96330261230469 406.3923034667969 399.57177734375"><title>Neo4j Graph Visualization</title><desc>Created using Neo4j (http://www.neo4j.com/)</desc><g class="layer relationships"><g class="relationship" transform="translate(237.84841702951755 207.26874485183123) rotate(494.22476690111927)"><path class="outline" fill="#A5ABB6" stroke="none" d="M 25 0.5 L 32.54188728833366 0.5 L 32.54188728833366 -0.5 L 25 -0.5 Z M 66.98719978833367 0.5 L 74.52908707666732 0.5 L 74.52908707666732 3.5 L 81.52908707666732 0 L 74.52908707666732 -3.5 L 74.52908707666732 -0.5 L 66.98719978833367 -0.5 Z"/><text text-anchor="middle" pointer-events="none" font-size="8px" fill="#000000" x="49.76454353833366" y="3" transform="rotate(180 49.76454353833366 0)" font-family="sans-serif">ORIGIN</text></g><g class="relationship" transform="translate(237.84841702951755 207.26874485183123) rotate(286.8846433605696)"><path class="outline" fill="#A5ABB6" stroke="none" d="M 25 0.5 L 26.003692342644882 0.5 L 26.003692342644882 -0.5 L 25 -0.5 Z M 74.67556734264488 0.5 L 75.67925968528976 0.5 L 75.67925968528976 3.5 L 82.67925968528976 0 L 75.67925968528976 -3.5 L 75.67925968528976 -0.5 L 74.67556734264488 -0.5 Z"/><text text-anchor="middle" pointer-events="none" font-size="8px" fill="#000000" x="50.33962984264488" y="3" font-family="sans-serif">DESTINA…</text></g><g class="relationship" transform="translate(240.66535113170602 -1.1010033789337532) rotate(434.8811453244979)"><path class="outline" fill="#A5ABB6" stroke="none" d="M 25 0.5 L 33.831838352511305 0.5 L 33.831838352511305 -0.5 L 25 -0.5 Z M 68.27715085251131 0.5 L 77.10898920502261 0.5 L 77.10898920502261 3.5 L 84.10898920502261 0 L 77.10898920502261 -3.5 L 77.10898920502261 -0.5 L 68.27715085251131 -0.5 Z"/><text text-anchor="middle" pointer-events="none" font-size="8px" fill="#000000" x="51.054494602511305" y="3" font-family="sans-serif">ORIGIN</text></g><g class="relationship" transform="translate(240.66535113170602 -1.1010033789337532) rotate(211.50339246539102)"><path class="outline" fill="#A5ABB6" stroke="none" d="M 25 0.5 L 26.572638606624935 0.5 L 26.572638606624935 -0.5 L 25 -0.5 Z M 75.24451360662493 0.5 L 76.81715221324987 0.5 L 76.81715221324987 3.5 L 83.81715221324987 0 L 76.81715221324987 -3.5 L 76.81715221324987 -0.5 L 75.24451360662493 -0.5 Z"/><text text-anchor="middle" pointer-events="none" font-size="8px" fill="#000000" x="50.908576106624935" y="3" transform="rotate(180 50.908576106624935 0)" font-family="sans-serif">DESTINA…</text></g><g class="relationship" transform="translate(39.32798188997543 -52.06810701775866) rotate(356.89165496124315)"><path class="outline" fill="#A5ABB6" stroke="none" d="M 25 0.5 L 26.52346763307566 0.5 L 26.52346763307566 -0.5 L 25 -0.5 Z M 75.19534263307565 0.5 L 76.71881026615132 0.5 L 76.71881026615132 3.5 L 83.71881026615132 0 L 76.71881026615132 -3.5 L 76.71881026615132 -0.5 L 75.19534263307565 -0.5 Z"/><text text-anchor="middle" pointer-events="none" font-size="8px" fill="#000000" x="50.85940513307566" y="3" font-family="sans-serif">DESTINA…</text></g><g class="relationship" transform="translate(39.32798188997543 -52.06810701775866) rotate(504.81198573652205)"><path class="outline" fill="#A5ABB6" stroke="none" d="M 25 0.5 L 33.48895921812471 0.5 L 33.48895921812471 -0.5 L 25 -0.5 Z M 67.9342717181247 0.5 L 76.42323093624942 0.5 L 76.42323093624942 3.5 L 83.42323093624942 0 L 76.42323093624942 -3.5 L 76.42323093624942 -0.5 L 67.9342717181247 -0.5 Z"/><text text-anchor="middle" pointer-events="none" font-size="8px" fill="#000000" x="50.71161546812471" y="3" transform="rotate(180 50.71161546812471 0)" font-family="sans-serif">ORIGIN</text></g><g class="relationship" transform="translate(-79.26889978453427 114.4265021732889) rotate(286.08173339610545)"><path class="outline" fill="#A5ABB6" stroke="none" d="M 25 0.5 L 33.40264634236046 0.5 L 33.40264634236046 -0.5 L 25 -0.5 Z M 67.84795884236047 0.5 L 76.25060518472092 0.5 L 76.25060518472092 3.5 L 83.25060518472092 0 L 76.25060518472092 -3.5 L 76.25060518472092 -0.5 L 67.84795884236047 -0.5 Z"/><text text-anchor="middle" pointer-events="none" font-size="8px" fill="#000000" x="50.62530259236046" y="3" font-family="sans-serif">ORIGIN</text></g><g class="relationship" transform="translate(-79.26889978453427 114.4265021732889) rotate(432.33205961980997)"><path class="outline" fill="#A5ABB6" stroke="none" d="M 25 0.5 L 25.895002492161076 0.5 L 25.895002492161076 -0.5 L 25 -0.5 Z M 74.56687749216107 0.5 L 75.46187998432215 0.5 L 75.46187998432215 3.5 L 82.46187998432215 0 L 75.46187998432215 -3.5 L 75.46187998432215 -0.5 L 74.56687749216107 -0.5 Z"/><text text-anchor="middle" pointer-events="none" font-size="8px" fill="#000000" x="50.230939992161076" y="3" font-family="sans-serif">DESTINA…</text></g></g><g class="layer nodes"><g class="node" transform="translate(163.54704922880182,283.6084667293108)"><circle class="outline" cx="0" cy="0" r="25" fill="#F16667" stroke="#eb2728" stroke-width="2px"/><text text-anchor="middle" pointer-events="none" font-family="sans-serif" dy="1.5625" font-size="25" fill="#FFFFFF"/><text text-anchor="middle" pointer-events="none" y="5" font-size="10px" fill="#FFFFFF" font-family="sans-serif"> LAX</text></g><g class="node" transform="translate(237.84841702951755,207.26874485183123)"><circle class="outline" cx="0" cy="0" r="25" fill="#D9C8AE" stroke="#c0a378" stroke-width="2px"/><text text-anchor="middle" pointer-events="none" font-family="sans-serif" dy="1.5625" font-size="25" fill="#604A0E"/><text text-anchor="middle" pointer-events="none" y="5" font-size="10px" fill="#604A0E" font-family="sans-serif"> 11/29/20…</text></g><g class="node" transform="translate(269.1233986703865,104.23138031966077)"><circle class="outline" cx="0" cy="0" r="25" fill="#F16667" stroke="#eb2728" stroke-width="2px"/><text text-anchor="middle" pointer-events="none" font-family="sans-serif" dy="1.5625" font-size="25" fill="#FFFFFF"/><text text-anchor="middle" pointer-events="none" y="5" font-size="10px" fill="#FFFFFF" font-family="sans-serif"> LAS</text></g><g class="node" transform="translate(240.66535113170602,-1.1010033789337532)"><circle class="outline" cx="0" cy="0" r="25" fill="#D9C8AE" stroke="#c0a378" stroke-width="2px"/><text text-anchor="middle" pointer-events="none" font-family="sans-serif" dy="1.5625" font-size="25" fill="#604A0E"/><text text-anchor="middle" pointer-events="none" y="5" font-size="10px" fill="#604A0E" font-family="sans-serif"> 11/29/20…</text></g><g class="node" transform="translate(147.8868432205872,-57.96330271327348)"><circle class="outline" cx="0" cy="0" r="25" fill="#F16667" stroke="#eb2728" stroke-width="2px"/><text text-anchor="middle" pointer-events="none" font-family="sans-serif" dy="1.5625" font-size="25" fill="#FFFFFF"/><text text-anchor="middle" pointer-events="none" y="5" font-size="10px" fill="#FFFFFF" font-family="sans-serif"> DEN</text></g><g class="node" transform="translate(39.32798188997543,-52.06810701775866)"><circle class="outline" cx="0" cy="0" r="25" fill="#D9C8AE" stroke="#c0a378" stroke-width="2px"/><text text-anchor="middle" pointer-events="none" font-family="sans-serif" dy="1.5625" font-size="25" fill="#604A0E"/><text text-anchor="middle" pointer-events="none" y="5" font-size="10px" fill="#604A0E" font-family="sans-serif"> 11/29/20…</text></g><g class="node" transform="translate(-49.28258032076006,10.412011991032044)"><circle class="outline" cx="0" cy="0" r="25" fill="#F16667" stroke="#eb2728" stroke-width="2px"/><text text-anchor="middle" pointer-events="none" font-family="sans-serif" dy="1.5625" font-size="25" fill="#FFFFFF"/><text text-anchor="middle" pointer-events="none" y="5" font-size="10px" fill="#FFFFFF" font-family="sans-serif"> MSP</text></g><g class="node" transform="translate(-79.26889978453427,114.4265021732889)"><circle class="outline" cx="0" cy="0" r="25" fill="#D9C8AE" stroke="#c0a378" stroke-width="2px"/><text text-anchor="middle" pointer-events="none" font-family="sans-serif" dy="1.5625" font-size="25" fill="#604A0E"/><text text-anchor="middle" pointer-events="none" y="5" font-size="10px" fill="#604A0E" font-family="sans-serif"> 11/23/20…</text></g><g class="node" transform="translate(-46.654223990193216,216.81956137455938)"><circle class="outline" cx="0" cy="0" r="25" fill="#F16667" stroke="#eb2728" stroke-width="2px"/><text text-anchor="middle" pointer-events="none" font-family="sans-serif" dy="1.5625" font-size="25" fill="#FFFFFF"/><text text-anchor="middle" pointer-events="none" y="5" font-size="10px" fill="#FFFFFF" font-family="sans-serif"> DAY</text></g></g></svg>