<svg xmlns="http://www.w3.org/2000/svg" width="405.79241943359375" height="399.75567626953125" viewBox="-107.85821533203125 -86.90018463134766 405.79241943359375 399.75567626953125"><title>Neo4j Graph Visualization</title><desc>Created using Neo4j (http://www.neo4j.com/)</desc><g class="layer relationships"><g class="relationship" transform="translate(237.6000551339777 207.98957886886683) rotate(494.5970803353809)"><path class="outline" fill="#A5ABB6" stroke="none" d="M 25 0.5 L 32.54934475527495 0.5 L 32.54934475527495 -0.5 L 25 -0.5 Z M 66.99465725527494 0.5 L 74.5440020105499 0.5 L 74.5440020105499 3.5 L 81.5440020105499 0 L 74.5440020105499 -3.5 L 74.5440020105499 -0.5 L 66.99465725527494 -0.5 Z"/><text text-anchor="middle" pointer-events="none" font-size="8px" fill="#000000" x="49.77200100527495" y="3" transform="rotate(180 49.77200100527495 0)" font-family="sans-serif">ORIGIN</text></g><g class="relationship" transform="translate(237.6000551339777 207.98957886886683) rotate(286.9164429086081)"><path class="outline" fill="#A5ABB6" stroke="none" d="M 25 0.5 L 26.007121933308284 0.5 L 26.007121933308284 -0.5 L 25 -0.5 Z M 74.67899693330828 0.5 L 75.68611886661657 0.5 L 75.68611886661657 3.5 L 82.68611886661657 0 L 75.68611886661657 -3.5 L 75.68611886661657 -0.5 L 74.67899693330828 -0.5 Z"/><text text-anchor="middle" pointer-events="none" font-size="8px" fill="#000000" x="50.343059433308284" y="3" font-family="sans-serif">DESTINA…</text></g><g class="relationship" transform="translate(240.73662703996237 -0.4450614040777661) rotate(435.02354680990084)"><path class="outline" fill="#A5ABB6" stroke="none" d="M 25 0.5 L 33.83458144764817 0.5 L 33.83458144764817 -0.5 L 25 -0.5 Z M 68.27989394764816 0.5 L 77.11447539529634 0.5 L 77.11447539529634 3.5 L 84.11447539529634 0 L 77.11447539529634 -3.5 L 77.11447539529634 -0.5 L 68.27989394764816 -0.5 Z"/><text text-anchor="middle" pointer-events="none" font-size="8px" fill="#000000" x="51.05723769764817" y="3" font-family="sans-serif">ORIGIN</text></g><g class="relationship" transform="translate(240.73662703996237 -0.4450614040777661) rotate(211.86391590869732)"><path class="outline" fill="#A5ABB6" stroke="none" d="M 25 0.5 L 26.58225973828496 0.5 L 26.58225973828496 -0.5 L 25 -0.5 Z M 75.25413473828496 0.5 L 76.83639447656992 0.5 L 76.83639447656992 3.5 L 83.83639447656992 0 L 76.83639447656992 -3.5 L 76.83639447656992 -0.5 L 75.25413473828496 -0.5 Z"/><text text-anchor="middle" pointer-events="none" font-size="8px" fill="#000000" x="50.91819723828496" y="3" transform="rotate(180 50.91819723828496 0)" font-family="sans-serif">DESTINA…</text></g><g class="relationship" transform="translate(39.675356877810124 -52.72205788818408) rotate(357.27081849763897)"><path class="outline" fill="#A5ABB6" stroke="none" d="M 25 0.5 L 26.538761762826347 0.5 L 26.538761762826347 -0.5 L 25 -0.5 Z M 75.21063676282634 0.5 L 76.7493985256527 0.5 L 76.7493985256527 3.5 L 83.7493985256527 0 L 76.7493985256527 -3.5 L 76.7493985256527 -0.5 L 75.21063676282634 -0.5 Z"/><text text-anchor="middle" pointer-events="none" font-size="8px" fill="#000000" x="50.87469926282635" y="3" font-family="sans-serif">DESTINA…</text></g><g class="relationship" transform="translate(39.675356877810124 -52.72205788818408) rotate(504.7581120184685)"><path class="outline" fill="#A5ABB6" stroke="none" d="M 25 0.5 L 33.50138052718079 0.5 L 33.50138052718079 -0.5 L 25 -0.5 Z M 67.9466930271808 0.5 L 76.44807355436159 0.5 L 76.44807355436159 3.5 L 83.44807355436159 0 L 76.44807355436159 -3.5 L 76.44807355436159 -0.5 L 67.9466930271808 -0.5 Z"/><text text-anchor="middle" pointer-events="none" font-size="8px" fill="#000000" x="50.72403677718079" y="3" transform="rotate(180 50.72403677718079 0)" font-family="sans-serif">ORIGIN</text></g><g class="relationship" transform="translate(-78.85821597973454 113.87945283161216) rotate(286.0677554638771)"><path class="outline" fill="#A5ABB6" stroke="none" d="M 25 0.5 L 33.40366808356965 0.5 L 33.40366808356965 -0.5 L 25 -0.5 Z M 67.84898058356964 0.5 L 76.2526486671393 0.5 L 76.2526486671393 3.5 L 83.2526486671393 0 L 76.2526486671393 -3.5 L 76.2526486671393 -0.5 L 67.84898058356964 -0.5 Z"/><text text-anchor="middle" pointer-events="none" font-size="8px" fill="#000000" x="50.62632433356965" y="3" font-family="sans-serif">ORIGIN</text></g><g class="relationship" transform="translate(-78.85821597973454 113.87945283161216) rotate(432.8365227936639)"><path class="outline" fill="#A5ABB6" stroke="none" d="M 25 0.5 L 25.888009429968278 0.5 L 25.888009429968278 -0.5 L 25 -0.5 Z M 74.55988442996828 0.5 L 75.44789385993656 0.5 L 75.44789385993656 3.5 L 82.44789385993656 0 L 75.44789385993656 -3.5 L 75.44789385993656 -0.5 L 74.55988442996828 -0.5 Z"/><text text-anchor="middle" pointer-events="none" font-size="8px" fill="#000000" x="50.22394692996828" y="3" font-family="sans-serif">DESTINA…</text></g></g><g class="layer nodes"><g class="node" transform="translate(162.79372470403808,283.85549540607576)"><circle class="outline" cx="0" cy="0" r="25" fill="#F16667" stroke="#eb2728" stroke-width="2px"/><text text-anchor="middle" pointer-events="none" font-family="sans-serif" dy="1.5625" font-size="25" fill="#FFFFFF"/><text text-anchor="middle" pointer-events="none" y="5" font-size="10px" fill="#FFFFFF" font-family="sans-serif"> LAX</text></g><g class="node" transform="translate(237.6000551339777,207.98957886886683)"><circle class="outline" cx="0" cy="0" r="25" fill="#D9C8AE" stroke="#c0a378" stroke-width="2px"/><text text-anchor="middle" pointer-events="none" font-family="sans-serif" dy="1.5625" font-size="25" fill="#604A0E"/><text text-anchor="middle" pointer-events="none" y="5" font-size="10px" fill="#604A0E" font-family="sans-serif"> 11/29/20…</text></g><g class="node" transform="translate(268.93421425689047,104.96302564779157)"><circle class="outline" cx="0" cy="0" r="25" fill="#F16667" stroke="#eb2728" stroke-width="2px"/><text text-anchor="middle" pointer-events="none" font-family="sans-serif" dy="1.5625" font-size="25" fill="#FFFFFF"/><text text-anchor="middle" pointer-events="none" y="5" font-size="10px" fill="#FFFFFF" font-family="sans-serif"> LAS</text></g><g class="node" transform="translate(240.73662703996237,-0.4450614040777661)"><circle class="outline" cx="0" cy="0" r="25" fill="#D9C8AE" stroke="#c0a378" stroke-width="2px"/><text text-anchor="middle" pointer-events="none" font-family="sans-serif" dy="1.5625" font-size="25" fill="#604A0E"/><text text-anchor="middle" pointer-events="none" y="5" font-size="10px" fill="#604A0E" font-family="sans-serif"> 11/29/20…</text></g><g class="node" transform="translate(148.30140677503013,-57.900181430346954)"><circle class="outline" cx="0" cy="0" r="25" fill="#F16667" stroke="#eb2728" stroke-width="2px"/><text text-anchor="middle" pointer-events="none" font-family="sans-serif" dy="1.5625" font-size="25" fill="#FFFFFF"/><text text-anchor="middle" pointer-events="none" y="5" font-size="10px" fill="#FFFFFF" font-family="sans-serif"> DEN</text></g><g class="node" transform="translate(39.675356877810124,-52.72205788818408)"><circle class="outline" cx="0" cy="0" r="25" fill="#D9C8AE" stroke="#c0a378" stroke-width="2px"/><text text-anchor="middle" pointer-events="none" font-family="sans-serif" dy="1.5625" font-size="25" fill="#604A0E"/><text text-anchor="middle" pointer-events="none" y="5" font-size="10px" fill="#604A0E" font-family="sans-serif"> 11/29/20…</text></g><g class="node" transform="translate(-48.89670729823869,9.855686600141075)"><circle class="outline" cx="0" cy="0" r="25" fill="#F16667" stroke="#eb2728" stroke-width="2px"/><text text-anchor="middle" pointer-events="none" font-family="sans-serif" dy="1.5625" font-size="25" fill="#FFFFFF"/><text text-anchor="middle" pointer-events="none" y="5" font-size="10px" fill="#FFFFFF" font-family="sans-serif"> MSP</text></g><g class="node" transform="translate(-78.85821597973454,113.87945283161216)"><circle class="outline" cx="0" cy="0" r="25" fill="#D9C8AE" stroke="#c0a378" stroke-width="2px"/><text text-anchor="middle" pointer-events="none" font-family="sans-serif" dy="1.5625" font-size="25" fill="#604A0E"/><text text-anchor="middle" pointer-events="none" y="5" font-size="10px" fill="#604A0E" font-family="sans-serif"> 11/23/20…</text></g><g class="node" transform="translate(-47.150444093559656,216.54233364522702)"><circle class="outline" cx="0" cy="0" r="25" fill="#F16667" stroke="#eb2728" stroke-width="2px"/><text text-anchor="middle" pointer-events="none" font-family="sans-serif" dy="1.5625" font-size="25" fill="#FFFFFF"/><text text-anchor="middle" pointer-events="none" y="5" font-size="10px" fill="#FFFFFF" font-family="sans-serif"> DAY</text></g></g></svg>