<svg xmlns="http://www.w3.org/2000/svg" width="285.5677795410156" height="265.7344970703125" viewBox="-31.788211822509766 -40.49958801269531 285.5677795410156 265.7344970703125"><title>Neo4j Graph Visualization</title><desc>Created using Neo4j (http://www.neo4j.com/)</desc><g class="layer relationships"><g class="relationship" transform="translate(162.03954605830984 196.23492892100683) rotate(243.8927569024362)"><path class="outline" fill="#A5ABB6" stroke="none" d="M 25 0.5 L 30.73573076897113 0.5 L 30.73573076897113 -0.5 L 25 -0.5 Z M 77.62635576897114 0.5 L 83.36208653794226 0.5 L 83.36208653794226 3.5 L 90.36208653794226 0 L 83.36208653794226 -3.5 L 83.36208653794226 -0.5 L 77.62635576897114 -0.5 Z"/><text text-anchor="middle" pointer-events="none" font-size="8px" fill="#000000" x="54.18104326897113" y="3" transform="rotate(180 54.18104326897113 0)" font-family="sans-serif">DIRECTED</text></g><g class="relationship" transform="translate(224.77955256646675 91.7434146107826) rotate(539.5459072365734)"><path class="outline" fill="#A5ABB6" stroke="none" d="M 25 0.5 L 35.36776525909552 0.5 L 35.36776525909552 -0.5 L 25 -0.5 Z M 71.14120275909552 0.5 L 81.50896801819104 0.5 L 81.50896801819104 3.5 L 88.50896801819104 0 L 81.50896801819104 -3.5 L 81.50896801819104 -0.5 L 71.14120275909552 -0.5 Z"/><text text-anchor="middle" pointer-events="none" font-size="8px" fill="#000000" x="53.25448400909552" y="3" transform="rotate(180 53.25448400909552 0)" font-family="sans-serif">WROTE</text></g><g class="relationship" transform="translate(156.40028844515552 -11.49958605689135) rotate(473.4276183992952)"><path class="outline" fill="#A5ABB6" stroke="none" d="M 25 0.5 L 30.468307029339805 0.5 L 30.468307029339805 -0.5 L 25 -0.5 Z M 76.0308070293398 0.5 L 81.49911405867961 0.5 L 81.49911405867961 3.5 L 88.49911405867961 0 L 81.49911405867961 -3.5 L 81.49911405867961 -0.5 L 76.0308070293398 -0.5 Z"/><text text-anchor="middle" pointer-events="none" font-size="8px" fill="#000000" x="53.249557029339805" y="3" transform="rotate(180 53.249557029339805 0)" font-family="sans-serif">ACTED_IN</text></g><g class="relationship" transform="translate(35.70987533004852 5.494783709003411) rotate(409.0721744602126)"><path class="outline" fill="#A5ABB6" stroke="none" d="M 25 0.5 L 31.391908814276754 0.5 L 31.391908814276754 -0.5 L 25 -0.5 Z M 76.95440881427675 0.5 L 83.3463176285535 0.5 L 83.3463176285535 3.5 L 90.3463176285535 0 L 83.3463176285535 -3.5 L 83.3463176285535 -0.5 L 76.95440881427675 -0.5 Z"/><text text-anchor="middle" pointer-events="none" font-size="8px" fill="#000000" x="54.17315881427675" y="3" font-family="sans-serif">ACTED_IN</text></g><g class="relationship" transform="translate(-2.788210819606233 106.16267525209955) rotate(353.2403429853249)"><path class="outline" fill="#A5ABB6" stroke="none" d="M 25 0.5 L 31.149149937790078 0.5 L 31.149149937790078 -0.5 L 25 -0.5 Z M 76.71164993779007 0.5 L 82.86079987558016 0.5 L 82.86079987558016 3.5 L 89.86079987558016 0 L 82.86079987558016 -3.5 L 82.86079987558016 -0.5 L 76.71164993779007 -0.5 Z"/><text text-anchor="middle" pointer-events="none" font-size="8px" fill="#000000" x="53.93039993779008" y="3" font-family="sans-serif">ACTED_IN</text></g><g class="relationship" transform="translate(54.3224027039176 192.40023706817135) rotate(299.72219589199875)"><path class="outline" fill="#A5ABB6" stroke="none" d="M 25 0.5 L 36.04803914339399 0.5 L 36.04803914339399 -0.5 L 25 -0.5 Z M 71.82147664339399 0.5 L 82.86951578678799 0.5 L 82.86951578678799 3.5 L 89.86951578678799 0 L 82.86951578678799 -3.5 L 82.86951578678799 -0.5 L 71.82147664339399 -0.5 Z"/><text text-anchor="middle" pointer-events="none" font-size="8px" fill="#000000" x="53.93475789339399" y="3" font-family="sans-serif">WROTE</text></g></g><g class="layer nodes"><g class="node" transform="translate(111.27414940273088,92.64301073821898)"><circle class="outline" cx="0" cy="0" r="25" fill="#57C7E3" stroke="#23b3d7" stroke-width="2px"/><text text-anchor="middle" pointer-events="none" font-family="sans-serif" dy="1.5625" font-size="25" fill="#FFFFFF"/><text text-anchor="middle" pointer-events="none" font-family="sans-serif" dy="1.5625" font-size="25" fill="#FFFFFF"/><text text-anchor="middle" pointer-events="none" font-family="sans-serif" dy="1.5625" font-size="25" fill="#FFFFFF"/><text text-anchor="middle" pointer-events="none" y="-5" font-size="10px" fill="#FFFFFF" font-family="sans-serif"> Captain</text><text text-anchor="middle" pointer-events="none" y="5" font-size="10px" fill="#FFFFFF" font-family="sans-serif"> America:</text><text text-anchor="middle" pointer-events="none" y="15" font-size="10px" fill="#FFFFFF" font-family="sans-serif"> The Fi…</text></g><g class="node" transform="translate(162.03954605830984,196.23492892100683)"><circle class="outline" cx="0" cy="0" r="25" fill="#F79767" stroke="#f36924" stroke-width="2px"/><text text-anchor="middle" pointer-events="none" font-family="sans-serif" dy="1.5625" font-size="25" fill="#FFFFFF"/><text text-anchor="middle" pointer-events="none" font-family="sans-serif" dy="1.5625" font-size="25" fill="#FFFFFF"/><text text-anchor="middle" pointer-events="none" y="0" font-size="10px" fill="#FFFFFF" font-family="sans-serif"> Joe</text><text text-anchor="middle" pointer-events="none" y="10" font-size="10px" fill="#FFFFFF" font-family="sans-serif"> Johnston</text></g><g class="node" transform="translate(224.77955256646675,91.7434146107826)"><circle class="outline" cx="0" cy="0" r="25" fill="#F79767" stroke="#f36924" stroke-width="2px"/><text text-anchor="middle" pointer-events="none" font-family="sans-serif" dy="1.5625" font-size="25" fill="#FFFFFF"/><text text-anchor="middle" pointer-events="none" y="5" font-size="10px" fill="#FFFFFF" font-family="sans-serif"> Christop…</text></g><g class="node" transform="translate(156.40028844515552,-11.49958605689135)"><circle class="outline" cx="0" cy="0" r="25" fill="#F79767" stroke="#f36924" stroke-width="2px"/><text text-anchor="middle" pointer-events="none" font-family="sans-serif" dy="1.5625" font-size="25" fill="#FFFFFF"/><text text-anchor="middle" pointer-events="none" font-family="sans-serif" dy="1.5625" font-size="25" fill="#FFFFFF"/><text text-anchor="middle" pointer-events="none" y="0" font-size="10px" fill="#FFFFFF" font-family="sans-serif"> Hugo</text><text text-anchor="middle" pointer-events="none" y="10" font-size="10px" fill="#FFFFFF" font-family="sans-serif"> Weaving</text></g><g class="node" transform="translate(35.70987533004852,5.494783709003411)"><circle class="outline" cx="0" cy="0" r="25" fill="#F79767" stroke="#f36924" stroke-width="2px"/><text text-anchor="middle" pointer-events="none" font-family="sans-serif" dy="1.5625" font-size="25" fill="#FFFFFF"/><text text-anchor="middle" pointer-events="none" font-family="sans-serif" dy="1.5625" font-size="25" fill="#FFFFFF"/><text text-anchor="middle" pointer-events="none" font-family="sans-serif" dy="1.5625" font-size="25" fill="#FFFFFF"/><text text-anchor="middle" pointer-events="none" y="-5" font-size="10px" fill="#FFFFFF" font-family="sans-serif"> Samuel</text><text text-anchor="middle" pointer-events="none" y="5" font-size="10px" fill="#FFFFFF" font-family="sans-serif"> L.</text><text text-anchor="middle" pointer-events="none" y="15" font-size="10px" fill="#FFFFFF" font-family="sans-serif"> Jackson</text></g><g class="node" transform="translate(-2.788210819606233,106.16267525209955)"><circle class="outline" cx="0" cy="0" r="25" fill="#F79767" stroke="#f36924" stroke-width="2px"/><text text-anchor="middle" pointer-events="none" font-family="sans-serif" dy="1.5625" font-size="25" fill="#FFFFFF"/><text text-anchor="middle" pointer-events="none" font-family="sans-serif" dy="1.5625" font-size="25" fill="#FFFFFF"/><text text-anchor="middle" pointer-events="none" y="0" font-size="10px" fill="#FFFFFF" font-family="sans-serif"> Chris</text><text text-anchor="middle" pointer-events="none" y="10" font-size="10px" fill="#FFFFFF" font-family="sans-serif"> Evans</text></g><g class="node" transform="translate(54.3224027039176,192.40023706817135)"><circle class="outline" cx="0" cy="0" r="25" fill="#F79767" stroke="#f36924" stroke-width="2px"/><text text-anchor="middle" pointer-events="none" font-family="sans-serif" dy="1.5625" font-size="25" fill="#FFFFFF"/><text text-anchor="middle" pointer-events="none" y="5" font-size="10px" fill="#FFFFFF" font-family="sans-serif"> Stephen…</text></g></g></svg>