<svg xmlns="http://www.w3.org/2000/svg" width="412.4248962402344" height="304.845947265625" viewBox="-99.43569946289062 -64.8770751953125 412.4248962402344 304.845947265625"><title>Neo4j Graph Visualization</title><desc>Created using Neo4j (http://www.neo4j.com/)</desc><g class="layer relationships"><g class="relationship" transform="translate(89.41106450910185 128.33880618165858) rotate(218.03345201956563)"><path class="outline" fill="#A5ABB6" stroke="none" d="M 24.018736134675446,-6.953439040707552 L 24.277555179777966,-5.987513214418485 A 137.68534419527577 137.68534419527577 0 0 1 40.237506398319084,-9.265922904419739 L 40.09460347567551,-10.255659614206706 A 138.68534419527577 138.68534419527577 0 0 0 24.018736134675446,-6.953439040707552 Z M 75.89382235553217,-10.755225990840415 L 75.77859260317983,-9.761887124102174 A 137.68534419527577 137.68534419527577 0 0 1 91.82380963029951,-6.9300990765366395 L 91.12851416524194,-4.01178377207237 L 98.7490945848924,-5.794128875479702 L 92.75087025037627,-10.821186149155666 L 92.0555747853187,-7.902870844691397 A 138.68534419527577 138.68534419527577 0 0 0 75.89382235553217,-10.755225990840415"/><text text-anchor="middle" pointer-events="none" font-size="8px" fill="#000000" x="57.985000988360824" y="-8.165574899283968" transform="rotate(180 57.985000988360824 -11.165574899283968)" font-family="sans-serif">WROTE</text></g><g class="relationship" transform="translate(89.41106450910185 128.33880618165858) rotate(315.44008457486905)"><path class="outline" fill="#A5ABB6" stroke="none" d="M 25 0.5 L 36.98026890536 0.5 L 36.98026890536 -0.5 L 25 -0.5 Z M 83.87089390535999 0.5 L 95.85116281072 0.5 L 95.85116281072 3.5 L 102.85116281072 0 L 95.85116281072 -3.5 L 95.85116281072 -0.5 L 83.87089390535999 -0.5 Z"/><text text-anchor="middle" pointer-events="none" font-size="8px" fill="#000000" x="60.42558140536" y="3" font-family="sans-serif">DIRECTED</text></g><g class="relationship" transform="translate(89.41106450910185 128.33880618165858) rotate(218.03345201956563)"><path class="outline" fill="#A5ABB6" stroke="none" d="M 24.018736134675446,6.953439040707552 L 24.277555179777966,5.987513214418485 A 137.68534419527577 137.68534419527577 0 0 0 32.38181848714618,7.8983908142661505 L 32.18186019701169,8.878195224445278 A 138.68534419527577 138.68534419527577 0 0 1 24.018736134675446,6.953439040707552 Z M 83.84192113564016,9.599094458207844 L 83.66938108257634,8.614091955627913 A 137.68534419527577 137.68534419527577 0 0 0 91.82380963029951,6.9300990765366395 L 91.12851416524194,4.01178377207237 L 98.7490945848924,5.794128875479702 L 92.75087025037627,10.821186149155666 L 92.0555747853187,7.902870844691397 A 138.68534419527577 138.68534419527577 0 0 1 83.84192113564016,9.599094458207844"/><text text-anchor="middle" pointer-events="none" font-size="8px" fill="#000000" x="57.98500098836086" y="14.165574899283968" transform="rotate(180 57.98500098836086 11.165574899283968)" font-family="sans-serif">PRODUCED</text></g><g class="relationship" transform="translate(89.41106450910185 128.33880618165858) rotate(441.37746277693793)"><path class="outline" fill="#A5ABB6" stroke="none" d="M 25 0.5 L 27.28732664666991 0.5 L 27.28732664666991 -0.5 L 25 -0.5 Z M 49.28732664666991 0.5 L 51.57465329333982 0.5 L 51.57465329333982 3.5 L 58.57465329333982 0 L 51.57465329333982 -3.5 L 51.57465329333982 -0.5 L 49.28732664666991 -0.5 Z"/><text text-anchor="middle" pointer-events="none" font-size="8px" fill="#000000" x="38.28732664666991" y="3" font-family="sans-serif">DI…</text></g><g class="relationship" transform="translate(89.41106450910185 128.33880618165858) rotate(526.8703977464529)"><path class="outline" fill="#A5ABB6" stroke="none" d="M 25 0.5 L 26.240695987833895 0.5 L 26.240695987833895 -0.5 L 25 -0.5 Z M 65.1313209878339 0.5 L 66.37201697566779 0.5 L 66.37201697566779 3.5 L 73.37201697566779 0 L 66.37201697566779 -3.5 L 66.37201697566779 -0.5 L 65.1313209878339 -0.5 Z"/><text text-anchor="middle" pointer-events="none" font-size="8px" fill="#000000" x="45.686008487833895" y="3" transform="rotate(180 45.686008487833895 0)" font-family="sans-serif">DIREC…</text></g><g class="relationship" transform="translate(89.41106450910185 128.33880618165858) rotate(367.783969729661)"><path class="outline" fill="#A5ABB6" stroke="none" d="M 25 0.5 L 25.032531621335636 0.5 L 25.032531621335636 -0.5 L 25 -0.5 Z M 68.80987537133564 0.5 L 68.84240699267127 0.5 L 68.84240699267127 3.5 L 75.84240699267127 0 L 68.84240699267127 -3.5 L 68.84240699267127 -0.5 L 68.80987537133564 -0.5 Z"/><text text-anchor="middle" pointer-events="none" font-size="8px" fill="#000000" x="46.921203496335636" y="3" font-family="sans-serif">DIRECT…</text></g><g class="relationship" transform="translate(89.45239548055467 68.49485915981741) rotate(499.38509693348874)"><path class="outline" fill="#A5ABB6" stroke="none" d="M 25 0.5 L 36.18307986998472 0.5 L 36.18307986998472 -0.5 L 25 -0.5 Z M 83.07370486998471 0.5 L 94.25678473996943 0.5 L 94.25678473996943 3.5 L 101.25678473996943 0 L 94.25678473996943 -3.5 L 94.25678473996943 -0.5 L 83.07370486998471 -0.5 Z"/><text text-anchor="middle" pointer-events="none" font-size="8px" fill="#000000" x="59.62839236998472" y="3" transform="rotate(180 59.62839236998472 0)" font-family="sans-serif">DIRECTED</text></g><g class="relationship" transform="translate(89.45239548055467 68.49485915981741) rotate(341.8419581274542)"><path class="outline" fill="#A5ABB6" stroke="none" d="M 25 0.5 L 27.856829807060073 0.5 L 27.856829807060073 -0.5 L 25 -0.5 Z M 60.97011105706007 0.5 L 63.82694086412015 0.5 L 63.82694086412015 3.5 L 70.82694086412015 0 L 63.82694086412015 -3.5 L 63.82694086412015 -0.5 L 60.97011105706007 -0.5 Z"/><text text-anchor="middle" pointer-events="none" font-size="8px" fill="#000000" x="44.41347043206007" y="3" font-family="sans-serif">DIRE…</text></g><g class="relationship" transform="translate(89.45239548055467 68.49485915981741) rotate(444.99055063724205)"><path class="outline" fill="#A5ABB6" stroke="none" d="M 25 0.5 L 44.564832314087965 0.5 L 44.564832314087965 -0.5 L 25 -0.5 Z M 91.45545731408797 0.5 L 111.02028962817593 0.5 L 111.02028962817593 3.5 L 118.02028962817593 0 L 111.02028962817593 -3.5 L 111.02028962817593 -0.5 L 91.45545731408797 -0.5 Z"/><text text-anchor="middle" pointer-events="none" font-size="8px" fill="#000000" x="68.01014481408797" y="3" font-family="sans-serif">DIRECTED</text></g><g class="relationship" transform="translate(89.45239548055467 68.49485915981741) rotate(189.35790385419278)"><path class="outline" fill="#A5ABB6" stroke="none" d="M 24.018736134675446,-6.953439040707552 L 24.277555179777966,-5.987513214418485 A 88.22670945145363 88.22670945145363 0 0 1 24.520803591123112,-6.052319631386766 L 24.264741629593782,-7.018980001867391 A 89.22670945145363 89.22670945145363 0 0 0 24.018736134675446,-6.953439040707552 Z M 66.9719812290177,-7.755555535308034 L 66.74940579752896,-6.780640063434902 A 88.22670945145363 88.22670945145363 0 0 1 66.99474431679619,-6.724260348412807 L 66.31867570102641,-3.8014310296240517 L 73.92735749659825,-5.633905131414793 L 67.89616913782255,-10.621366106797815 L 67.22010052205277,-7.69853678800906 A 89.22670945145363 89.22670945145363 0 0 0 66.9719812290177,-7.755555535308034"/><text text-anchor="middle" pointer-events="none" font-size="8px" fill="#000000" x="45.582258026909315" y="-6.480571966863764" transform="rotate(180 45.582258026909315 -9.480571966863764)" font-family="sans-serif">PRODU…</text></g><g class="relationship" transform="translate(89.45239548055467 68.49485915981741) rotate(189.35790385419278)"><path class="outline" fill="#A5ABB6" stroke="none" d="M 24.018736134675446,6.953439040707552 L 24.277555179777966,5.987513214418485 A 88.22670945145363 88.22670945145363 0 0 0 27.958620979434084,6.889576496970548 L 27.74152473939301,7.865726701887809 A 89.22670945145363 89.22670945145363 0 0 1 24.018736134675446,6.953439040707552 Z M 63.46806678161738,8.4819055279971 L 63.28476114354523,7.498849556522956 A 88.22670945145363 88.22670945145363 0 0 0 66.99474431679619,6.724260348412807 L 66.31867570102641,3.8014310296240517 L 73.92735749659825,5.633905131414793 L 67.89616913782255,10.621366106797815 L 67.22010052205277,7.69853678800906 A 89.22670945145363 89.22670945145363 0 0 1 63.46806678161738,8.4819055279971"/><text text-anchor="middle" pointer-events="none" font-size="8px" fill="#000000" x="45.58225802690935" y="12.480571966863764" transform="rotate(180 45.58225802690935 9.480571966863764)" font-family="sans-serif">WROTE</text></g><g class="relationship" transform="translate(89.45239548055467 68.49485915981741) rotate(396.35164188526653)"><path class="outline" fill="#A5ABB6" stroke="none" d="M 25 0.5 L 35.056543950309845 0.5 L 35.056543950309845 -0.5 L 25 -0.5 Z M 81.94716895030984 0.5 L 92.00371290061969 0.5 L 92.00371290061969 3.5 L 99.00371290061969 0 L 92.00371290061969 -3.5 L 92.00371290061969 -0.5 L 81.94716895030984 -0.5 Z"/><text text-anchor="middle" pointer-events="none" font-size="8px" fill="#000000" x="58.501856450309845" y="3" font-family="sans-serif">DIRECTED</text></g><g class="relationship" transform="translate(283.98918547123077 1.2292491878339908) rotate(520.1282861024139)"><path class="outline" fill="#A5ABB6" stroke="none" d="M 25 0.5 L 28.071602135398102 0.5 L 28.071602135398102 -0.5 L 25 -0.5 Z M 74.96222713539811 0.5 L 78.0338292707962 0.5 L 78.0338292707962 3.5 L 85.0338292707962 0 L 78.0338292707962 -3.5 L 78.0338292707962 -0.5 L 74.96222713539811 -0.5 Z"/><text text-anchor="middle" pointer-events="none" font-size="8px" fill="#000000" x="51.5169146353981" y="3" transform="rotate(180 51.5169146353981 0)" font-family="sans-serif">DIRECTED</text></g><g class="relationship" transform="translate(-70.43569724568604 -35.87707496090967) rotate(414.5587931869758)"><path class="outline" fill="#A5ABB6" stroke="none" d="M 25 0.5 L 27.30141455858643 0.5 L 27.30141455858643 -0.5 L 25 -0.5 Z M 74.19203955858643 0.5 L 76.49345411717286 0.5 L 76.49345411717286 3.5 L 83.49345411717286 0 L 76.49345411717286 -3.5 L 76.49345411717286 -0.5 L 74.19203955858643 -0.5 Z"/><text text-anchor="middle" pointer-events="none" font-size="8px" fill="#000000" x="50.74672705858643" y="3" font-family="sans-serif">DIRECTED</text></g></g><g class="layer nodes"><g class="node" transform="translate(189.32428660521214,141.996737886309)"><circle class="outline" cx="0" cy="0" r="25" fill="#F79767" stroke="#f36924" stroke-width="2px"/><text text-anchor="middle" pointer-events="none" font-family="sans-serif" dy="1.5625" font-size="25" fill="#FFFFFF"/><text text-anchor="middle" pointer-events="none" font-family="sans-serif" dy="1.5625" font-size="25" fill="#FFFFFF"/><text text-anchor="middle" pointer-events="none" font-family="sans-serif" dy="1.5625" font-size="25" fill="#FFFFFF"/><text text-anchor="middle" pointer-events="none" y="-5" font-size="10px" fill="#FFFFFF" font-family="sans-serif"> The</text><text text-anchor="middle" pointer-events="none" y="5" font-size="10px" fill="#FFFFFF" font-family="sans-serif"> Matrix</text><text text-anchor="middle" pointer-events="none" y="15" font-size="10px" fill="#FFFFFF" font-family="sans-serif"> Revol…</text></g><g class="node" transform="translate(89.41106450910185,128.33880618165858)"><circle class="outline" cx="0" cy="0" r="25" fill="#57C7E3" stroke="#23b3d7" stroke-width="2px"/><text text-anchor="middle" pointer-events="none" font-family="sans-serif" dy="1.5625" font-size="25" fill="#FFFFFF"/><text text-anchor="middle" pointer-events="none" font-family="sans-serif" dy="1.5625" font-size="25" fill="#FFFFFF"/><text text-anchor="middle" pointer-events="none" y="0" font-size="10px" fill="#FFFFFF" font-family="sans-serif"> Lilly</text><text text-anchor="middle" pointer-events="none" y="10" font-size="10px" fill="#FFFFFF" font-family="sans-serif"> Wacho…</text></g><g class="node" transform="translate(89.45239548055467,68.49485915981741)"><circle class="outline" cx="0" cy="0" r="25" fill="#57C7E3" stroke="#23b3d7" stroke-width="2px"/><text text-anchor="middle" pointer-events="none" font-family="sans-serif" dy="1.5625" font-size="25" fill="#FFFFFF"/><text text-anchor="middle" pointer-events="none" font-family="sans-serif" dy="1.5625" font-size="25" fill="#FFFFFF"/><text text-anchor="middle" pointer-events="none" y="0" font-size="10px" fill="#FFFFFF" font-family="sans-serif"> Lana</text><text text-anchor="middle" pointer-events="none" y="10" font-size="10px" fill="#FFFFFF" font-family="sans-serif"> Wacho…</text></g><g class="node" transform="translate(180.50720470901078,38.63143149745679)"><circle class="outline" cx="0" cy="0" r="25" fill="#F79767" stroke="#f36924" stroke-width="2px"/><text text-anchor="middle" pointer-events="none" font-family="sans-serif" dy="1.5625" font-size="25" fill="#FFFFFF"/><text text-anchor="middle" pointer-events="none" font-family="sans-serif" dy="1.5625" font-size="25" fill="#FFFFFF"/><text text-anchor="middle" pointer-events="none" y="0" font-size="10px" fill="#FFFFFF" font-family="sans-serif"> Cloud</text><text text-anchor="middle" pointer-events="none" y="10" font-size="10px" fill="#FFFFFF" font-family="sans-serif"> Atlas</text></g><g class="node" transform="translate(283.98918547123077,1.2292491878339908)"><circle class="outline" cx="0" cy="0" r="25" fill="#57C7E3" stroke="#23b3d7" stroke-width="2px"/><text text-anchor="middle" pointer-events="none" font-family="sans-serif" dy="1.5625" font-size="25" fill="#FFFFFF"/><text text-anchor="middle" pointer-events="none" font-family="sans-serif" dy="1.5625" font-size="25" fill="#FFFFFF"/><text text-anchor="middle" pointer-events="none" y="0" font-size="10px" fill="#FFFFFF" font-family="sans-serif"> Tom</text><text text-anchor="middle" pointer-events="none" y="10" font-size="10px" fill="#FFFFFF" font-family="sans-serif"> Tykwer</text></g><g class="node" transform="translate(-7.523895500602006,52.51373218249374)"><circle class="outline" cx="0" cy="0" r="25" fill="#F79767" stroke="#f36924" stroke-width="2px"/><text text-anchor="middle" pointer-events="none" font-family="sans-serif" dy="1.5625" font-size="25" fill="#FFFFFF"/><text text-anchor="middle" pointer-events="none" font-family="sans-serif" dy="1.5625" font-size="25" fill="#FFFFFF"/><text text-anchor="middle" pointer-events="none" y="0" font-size="10px" fill="#FFFFFF" font-family="sans-serif"> V for</text><text text-anchor="middle" pointer-events="none" y="10" font-size="10px" fill="#FFFFFF" font-family="sans-serif"> Vendetta</text></g><g class="node" transform="translate(-70.43569724568604,-35.87707496090967)"><circle class="outline" cx="0" cy="0" r="25" fill="#57C7E3" stroke="#23b3d7" stroke-width="2px"/><text text-anchor="middle" pointer-events="none" font-family="sans-serif" dy="1.5625" font-size="25" fill="#FFFFFF"/><text text-anchor="middle" pointer-events="none" font-family="sans-serif" dy="1.5625" font-size="25" fill="#FFFFFF"/><text text-anchor="middle" pointer-events="none" y="0" font-size="10px" fill="#FFFFFF" font-family="sans-serif"> James</text><text text-anchor="middle" pointer-events="none" y="10" font-size="10px" fill="#FFFFFF" font-family="sans-serif"> Marshall</text></g><g class="node" transform="translate(-6.389383635362644,150.6844513766589)"><circle class="outline" cx="0" cy="0" r="25" fill="#F79767" stroke="#f36924" stroke-width="2px"/><text text-anchor="middle" pointer-events="none" font-family="sans-serif" dy="1.5625" font-size="25" fill="#FFFFFF"/><text text-anchor="middle" pointer-events="none" font-family="sans-serif" dy="1.5625" font-size="25" fill="#FFFFFF"/><text text-anchor="middle" pointer-events="none" font-family="sans-serif" dy="1.5625" font-size="25" fill="#FFFFFF"/><text text-anchor="middle" pointer-events="none" y="-5" font-size="10px" fill="#FFFFFF" font-family="sans-serif"> The</text><text text-anchor="middle" pointer-events="none" y="5" font-size="10px" fill="#FFFFFF" font-family="sans-serif"> Matrix</text><text text-anchor="middle" pointer-events="none" y="15" font-size="10px" fill="#FFFFFF" font-family="sans-serif"> Reloa…</text></g><g class="node" transform="translate(101.94093238742153,210.96885570393474)"><circle class="outline" cx="0" cy="0" r="25" fill="#F79767" stroke="#f36924" stroke-width="2px"/><text text-anchor="middle" pointer-events="none" font-family="sans-serif" dy="1.5625" font-size="25" fill="#FFFFFF"/><text text-anchor="middle" pointer-events="none" font-family="sans-serif" dy="1.5625" font-size="25" fill="#FFFFFF"/><text text-anchor="middle" pointer-events="none" y="0" font-size="10px" fill="#FFFFFF" font-family="sans-serif"> The</text><text text-anchor="middle" pointer-events="none" y="10" font-size="10px" fill="#FFFFFF" font-family="sans-serif"> Matrix</text></g></g></svg>