<svg xmlns="http://www.w3.org/2000/svg" width="462.94134521484375" height="378.3477783203125" viewBox="-103.43614959716797 -64.277099609375 462.94134521484375 378.3477783203125"><title>Neo4j Graph Visualization</title><desc>Created using Neo4j (http://www.neo4j.com/)</desc><g class="layer relationships"><g class="relationship" transform="translate(145.08820484165452 285.0706680929495) rotate(260.43691872232364)"><path class="outline" fill="#A5ABB6" stroke="none" d="M 25 0.5 L 26.908831257120248 0.5 L 26.908831257120248 -0.5 L 25 -0.5 Z M 46.24476875712025 0.5 L 48.153600014240496 0.5 L 48.153600014240496 3.5 L 55.153600014240496 0 L 48.153600014240496 -3.5 L 48.153600014240496 -0.5 L 46.24476875712025 -0.5 Z"/><text text-anchor="middle" pointer-events="none" font-size="8px" fill="#000000" x="36.57680000712025" y="3" transform="rotate(180 36.57680000712025 0)" font-family="sans-serif">A…</text></g><g class="relationship" transform="translate(145.08820484165452 285.0706680929495) rotate(260.06997780109765)"><path class="outline" fill="#A5ABB6" stroke="none" d="M 25 0.5 L 43.59891109550199 0.5 L 43.59891109550199 -0.5 L 25 -0.5 Z M 89.16141109550199 0.5 L 107.76032219100398 0.5 L 107.76032219100398 3.5 L 114.76032219100398 0 L 107.76032219100398 -3.5 L 107.76032219100398 -0.5 L 89.16141109550199 -0.5 Z"/><text text-anchor="middle" pointer-events="none" font-size="8px" fill="#000000" x="66.38016109550199" y="3" transform="rotate(180 66.38016109550199 0)" font-family="sans-serif">ACTED_IN</text></g><g class="relationship" transform="translate(217.0516730632368 150.5513477707493) rotate(506.9535550186739)"><path class="outline" fill="#A5ABB6" stroke="none" d="M 25 0.5 L 26.81232085184851 0.5 L 26.81232085184851 -0.5 L 25 -0.5 Z M 67.92560210184851 0.5 L 69.73792295369702 0.5 L 69.73792295369702 3.5 L 76.73792295369702 0 L 69.73792295369702 -3.5 L 69.73792295369702 -0.5 L 67.92560210184851 -0.5 Z"/><text text-anchor="middle" pointer-events="none" font-size="8px" fill="#000000" x="47.36896147684851" y="3" transform="rotate(180 47.36896147684851 0)" font-family="sans-serif">ACTED…</text></g><g class="relationship" transform="translate(217.0516730632368 150.5513477707493) rotate(370.854195691091)"><path class="outline" fill="#A5ABB6" stroke="none" d="M 25 0.5 L 31.47885883834035 0.5 L 31.47885883834035 -0.5 L 25 -0.5 Z M 77.04135883834036 0.5 L 83.5202176766807 0.5 L 83.5202176766807 3.5 L 90.5202176766807 0 L 83.5202176766807 -3.5 L 83.5202176766807 -0.5 L 77.04135883834036 -0.5 Z"/><text text-anchor="middle" pointer-events="none" font-size="8px" fill="#000000" x="54.26010883834035" y="3" font-family="sans-serif">ACTED_IN</text></g><g class="relationship" transform="translate(217.0516730632368 150.5513477707493) rotate(307.8589366012867)"><path class="outline" fill="#A5ABB6" stroke="none" d="M 25 0.5 L 34.34652843386876 0.5 L 34.34652843386876 -0.5 L 25 -0.5 Z M 79.90902843386877 0.5 L 89.25555686773752 0.5 L 89.25555686773752 3.5 L 96.25555686773752 0 L 89.25555686773752 -3.5 L 89.25555686773752 -0.5 L 79.90902843386877 -0.5 Z"/><text text-anchor="middle" pointer-events="none" font-size="8px" fill="#000000" x="57.12777843386876" y="3" font-family="sans-serif">ACTED_IN</text></g><g class="relationship" transform="translate(217.0516730632368 150.5513477707493) rotate(181.87645466080596)"><path class="outline" fill="#A5ABB6" stroke="none" d="M 25 0.5 L 26.8900387312112 0.5 L 26.8900387312112 -0.5 L 25 -0.5 Z M 62.2259762312112 0.5 L 64.1160149624224 0.5 L 64.1160149624224 3.5 L 71.1160149624224 0 L 64.1160149624224 -3.5 L 64.1160149624224 -0.5 L 62.2259762312112 -0.5 Z"/><text text-anchor="middle" pointer-events="none" font-size="8px" fill="#000000" x="44.5580074812112" y="3" transform="rotate(180 44.5580074812112 0)" font-family="sans-serif">ACTE…</text></g><g class="relationship" transform="translate(46.96802603129819 84.44437358580512) rotate(294.75658601335624)"><path class="outline" fill="#A5ABB6" stroke="none" d="M 25 0.5 L 36.586484287501186 0.5 L 36.586484287501186 -0.5 L 25 -0.5 Z M 82.14898428750118 0.5 L 93.73546857500237 0.5 L 93.73546857500237 3.5 L 100.73546857500237 0 L 93.73546857500237 -3.5 L 93.73546857500237 -0.5 L 82.14898428750118 -0.5 Z"/><text text-anchor="middle" pointer-events="none" font-size="8px" fill="#000000" x="59.367734287501186" y="3" font-family="sans-serif">ACTED_IN</text></g><g class="relationship" transform="translate(46.96802603129819 84.44437358580512) rotate(253.80608812538742)"><path class="outline" fill="#A5ABB6" stroke="none" d="M 25 0.5 L 36.05268929076055 0.5 L 36.05268929076055 -0.5 L 25 -0.5 Z M 81.61518929076055 0.5 L 92.6678785815211 0.5 L 92.6678785815211 3.5 L 99.6678785815211 0 L 92.6678785815211 -3.5 L 92.6678785815211 -0.5 L 81.61518929076055 -0.5 Z"/><text text-anchor="middle" pointer-events="none" font-size="8px" fill="#000000" x="58.83393929076055" y="3" transform="rotate(180 58.83393929076055 0)" font-family="sans-serif">ACTED_IN</text></g><g class="relationship" transform="translate(46.96802603129819 84.44437358580512) rotate(212.49582697762145)"><path class="outline" fill="#A5ABB6" stroke="none" d="M 25 0.5 L 35.09063525324908 0.5 L 35.09063525324908 -0.5 L 25 -0.5 Z M 80.65313525324908 0.5 L 90.74377050649817 0.5 L 90.74377050649817 3.5 L 97.74377050649817 0 L 90.74377050649817 -3.5 L 90.74377050649817 -0.5 L 80.65313525324908 -0.5 Z"/><text text-anchor="middle" pointer-events="none" font-size="8px" fill="#000000" x="57.87188525324908" y="3" transform="rotate(180 57.87188525324908 0)" font-family="sans-serif">ACTED_IN</text></g><g class="relationship" transform="translate(46.96802603129819 84.44437358580512) rotate(400.3840386561376)"><path class="outline" fill="#A5ABB6" stroke="none" d="M 25 0.5 L 27.41897091381462 0.5 L 27.41897091381462 -0.5 L 25 -0.5 Z M 62.75490841381462 0.5 L 65.17387932762924 0.5 L 65.17387932762924 3.5 L 72.17387932762924 0 L 65.17387932762924 -3.5 L 65.17387932762924 -0.5 L 62.75490841381462 -0.5 Z"/><text text-anchor="middle" pointer-events="none" font-size="8px" fill="#000000" x="45.08693966381462" y="3" font-family="sans-serif">ACTE…</text></g><g class="relationship" transform="translate(46.96802603129819 84.44437358580512) rotate(529.4539261024456)"><path class="outline" fill="#A5ABB6" stroke="none" d="M 25 0.5 L 35.46383381865234 0.5 L 35.46383381865234 -0.5 L 25 -0.5 Z M 81.02633381865235 0.5 L 91.49016763730468 0.5 L 91.49016763730468 3.5 L 98.49016763730468 0 L 91.49016763730468 -3.5 L 91.49016763730468 -0.5 L 81.02633381865235 -0.5 Z"/><text text-anchor="middle" pointer-events="none" font-size="8px" fill="#000000" x="58.24508381865234" y="3" transform="rotate(180 58.24508381865234 0)" font-family="sans-serif">ACTED_IN</text></g><g class="relationship" transform="translate(46.96802603129819 84.44437358580512) rotate(415.10506336671847)"><path class="outline" fill="#A5ABB6" stroke="none" d="M 25 0.5 L 47.83860180227089 0.5 L 47.83860180227089 -0.5 L 25 -0.5 Z M 93.40110180227089 0.5 L 116.23970360454177 0.5 L 116.23970360454177 3.5 L 123.23970360454177 0 L 116.23970360454177 -3.5 L 116.23970360454177 -0.5 L 93.40110180227089 -0.5 Z"/><text text-anchor="middle" pointer-events="none" font-size="8px" fill="#000000" x="70.61985180227089" y="3" font-family="sans-serif">ACTED_IN</text></g><g class="relationship" transform="translate(41.26726462721482 268.3158860158898) rotate(325.46443330176584)"><path class="outline" fill="#A5ABB6" stroke="none" d="M 25 0.5 L 28.651719670155863 0.5 L 28.651719670155863 -0.5 L 25 -0.5 Z M 74.21421967015587 0.5 L 77.86593934031173 0.5 L 77.86593934031173 3.5 L 84.86593934031173 0 L 77.86593934031173 -3.5 L 77.86593934031173 -0.5 L 74.21421967015587 -0.5 Z"/><text text-anchor="middle" pointer-events="none" font-size="8px" fill="#000000" x="51.43296967015586" y="3" font-family="sans-serif">ACTED_IN</text></g><g class="relationship" transform="translate(41.26726462721482 268.3158860158898) rotate(303.3977835781091)"><path class="outline" fill="#A5ABB6" stroke="none" d="M 25 0.5 L 46.132375523816364 0.5 L 46.132375523816364 -0.5 L 25 -0.5 Z M 91.69487552381636 0.5 L 112.82725104763273 0.5 L 112.82725104763273 3.5 L 119.82725104763273 0 L 112.82725104763273 -3.5 L 112.82725104763273 -0.5 L 91.69487552381636 -0.5 Z"/><text text-anchor="middle" pointer-events="none" font-size="8px" fill="#000000" x="68.91362552381636" y="3" font-family="sans-serif">ACTED_IN</text></g><g class="relationship" transform="translate(217.0516730632368 150.5513477707493) rotate(525.9046951731473)"><path class="outline" fill="#A5ABB6" stroke="none" d="M 25 0.5 L 46.79243355121238 0.5 L 46.79243355121238 -0.5 L 25 -0.5 Z M 92.35493355121238 0.5 L 114.14736710242477 0.5 L 114.14736710242477 3.5 L 121.14736710242477 0 L 114.14736710242477 -3.5 L 114.14736710242477 -0.5 L 92.35493355121238 -0.5 Z"/><text text-anchor="middle" pointer-events="none" font-size="8px" fill="#000000" x="69.57368355121238" y="3" transform="rotate(180 69.57368355121238 0)" font-family="sans-serif">ACTED_IN</text></g><g class="relationship" transform="translate(46.96802603129819 84.44437358580512) rotate(434.4305252224165)"><path class="outline" fill="#A5ABB6" stroke="none" d="M 25 0.5 L 26.505238794259697 0.5 L 26.505238794259697 -0.5 L 25 -0.5 Z M 72.0677387942597 0.5 L 73.5729775885194 0.5 L 73.5729775885194 3.5 L 80.5729775885194 0 L 73.5729775885194 -3.5 L 73.5729775885194 -0.5 L 72.0677387942597 -0.5 Z"/><text text-anchor="middle" pointer-events="none" font-size="8px" fill="#000000" x="49.2864887942597" y="3" font-family="sans-serif">ACTED_IN</text></g><g class="relationship" transform="translate(41.26726462721482 268.3158860158898) rotate(292.50017972094827)"><path class="outline" fill="#A5ABB6" stroke="none" d="M 25 0.5 L 25.971473328030065 0.5 L 25.971473328030065 -0.5 L 25 -0.5 Z M 55.971473328030065 0.5 L 56.94294665606013 0.5 L 56.94294665606013 3.5 L 63.94294665606013 0 L 56.94294665606013 -3.5 L 56.94294665606013 -0.5 L 55.971473328030065 -0.5 Z"/><text text-anchor="middle" pointer-events="none" font-size="8px" fill="#000000" x="40.971473328030065" y="3" font-family="sans-serif">ACT…</text></g><g class="relationship" transform="translate(145.08820484165452 285.0706680929495) rotate(234.80069732821426)"><path class="outline" fill="#A5ABB6" stroke="none" d="M 25 0.5 L 34.250483214373595 0.5 L 34.250483214373595 -0.5 L 25 -0.5 Z M 79.81298321437359 0.5 L 89.06346642874719 0.5 L 89.06346642874719 3.5 L 96.06346642874719 0 L 89.06346642874719 -3.5 L 89.06346642874719 -0.5 L 79.81298321437359 -0.5 Z"/><text text-anchor="middle" pointer-events="none" font-size="8px" fill="#000000" x="57.031733214373595" y="3" transform="rotate(180 57.031733214373595 0)" font-family="sans-serif">ACTED_IN</text></g></g><g class="layer nodes"><g class="node" transform="translate(131.77201616146675,206.03093938468223)"><circle class="outline" cx="0" cy="0" r="25" fill="#F79767" stroke="#f36924" stroke-width="2px"/><text text-anchor="middle" pointer-events="none" font-family="sans-serif" dy="1.5625" font-size="25" fill="#FFFFFF"/><text text-anchor="middle" pointer-events="none" font-family="sans-serif" dy="1.5625" font-size="25" fill="#FFFFFF"/><text text-anchor="middle" pointer-events="none" font-family="sans-serif" dy="1.5625" font-size="25" fill="#FFFFFF"/><text text-anchor="middle" pointer-events="none" y="-5" font-size="10px" fill="#FFFFFF" font-family="sans-serif"> The</text><text text-anchor="middle" pointer-events="none" y="5" font-size="10px" fill="#FFFFFF" font-family="sans-serif"> Matrix</text><text text-anchor="middle" pointer-events="none" y="15" font-size="10px" fill="#FFFFFF" font-family="sans-serif"> Revol…</text></g><g class="node" transform="translate(145.08820484165452,285.0706680929495)"><circle class="outline" cx="0" cy="0" r="25" fill="#57C7E3" stroke="#23b3d7" stroke-width="2px"/><text text-anchor="middle" pointer-events="none" font-family="sans-serif" dy="1.5625" font-size="25" fill="#FFFFFF"/><text text-anchor="middle" pointer-events="none" y="5" font-size="10px" fill="#FFFFFF" font-family="sans-serif"> Carrie-A…</text></g><g class="node" transform="translate(120.98719969274896,147.40408097121664)"><circle class="outline" cx="0" cy="0" r="25" fill="#F79767" stroke="#f36924" stroke-width="2px"/><text text-anchor="middle" pointer-events="none" font-family="sans-serif" dy="1.5625" font-size="25" fill="#FFFFFF"/><text text-anchor="middle" pointer-events="none" font-family="sans-serif" dy="1.5625" font-size="25" fill="#FFFFFF"/><text text-anchor="middle" pointer-events="none" font-family="sans-serif" dy="1.5625" font-size="25" fill="#FFFFFF"/><text text-anchor="middle" pointer-events="none" y="-5" font-size="10px" fill="#FFFFFF" font-family="sans-serif"> The</text><text text-anchor="middle" pointer-events="none" y="5" font-size="10px" fill="#FFFFFF" font-family="sans-serif"> Matrix</text><text text-anchor="middle" pointer-events="none" y="15" font-size="10px" fill="#FFFFFF" font-family="sans-serif"> Reloa…</text></g><g class="node" transform="translate(217.0516730632368,150.5513477707493)"><circle class="outline" cx="0" cy="0" r="25" fill="#57C7E3" stroke="#23b3d7" stroke-width="2px"/><text text-anchor="middle" pointer-events="none" font-family="sans-serif" dy="1.5625" font-size="25" fill="#FFFFFF"/><text text-anchor="middle" pointer-events="none" font-family="sans-serif" dy="1.5625" font-size="25" fill="#FFFFFF"/><text text-anchor="middle" pointer-events="none" y="0" font-size="10px" fill="#FFFFFF" font-family="sans-serif"> Hugo</text><text text-anchor="middle" pointer-events="none" y="10" font-size="10px" fill="#FFFFFF" font-family="sans-serif"> Weaving</text></g><g class="node" transform="translate(330.5051842104243,172.30500264625675)"><circle class="outline" cx="0" cy="0" r="25" fill="#F79767" stroke="#f36924" stroke-width="2px"/><text text-anchor="middle" pointer-events="none" font-family="sans-serif" dy="1.5625" font-size="25" fill="#FFFFFF"/><text text-anchor="middle" pointer-events="none" font-family="sans-serif" dy="1.5625" font-size="25" fill="#FFFFFF"/><text text-anchor="middle" pointer-events="none" y="0" font-size="10px" fill="#FFFFFF" font-family="sans-serif"> Cloud</text><text text-anchor="middle" pointer-events="none" y="10" font-size="10px" fill="#FFFFFF" font-family="sans-serif"> Atlas</text></g><g class="node" transform="translate(291.46857431451957,54.81715910514269)"><circle class="outline" cx="0" cy="0" r="25" fill="#F79767" stroke="#f36924" stroke-width="2px"/><text text-anchor="middle" pointer-events="none" font-family="sans-serif" dy="1.5625" font-size="25" fill="#FFFFFF"/><text text-anchor="middle" pointer-events="none" font-family="sans-serif" dy="1.5625" font-size="25" fill="#FFFFFF"/><text text-anchor="middle" pointer-events="none" y="0" font-size="10px" fill="#FFFFFF" font-family="sans-serif"> V for</text><text text-anchor="middle" pointer-events="none" y="10" font-size="10px" fill="#FFFFFF" font-family="sans-serif"> Vendetta</text></g><g class="node" transform="translate(99.62152934279828,-29.735382267854238)"><circle class="outline" cx="0" cy="0" r="25" fill="#F79767" stroke="#f36924" stroke-width="2px"/><text text-anchor="middle" pointer-events="none" font-family="sans-serif" dy="1.5625" font-size="25" fill="#FFFFFF"/><text text-anchor="middle" pointer-events="none" font-family="sans-serif" dy="1.5625" font-size="25" fill="#FFFFFF"/><text text-anchor="middle" pointer-events="none" y="0" font-size="10px" fill="#FFFFFF" font-family="sans-serif"> Johnny</text><text text-anchor="middle" pointer-events="none" y="10" font-size="10px" fill="#FFFFFF" font-family="sans-serif"> Mnemo…</text></g><g class="node" transform="translate(46.96802603129819,84.44437358580512)"><circle class="outline" cx="0" cy="0" r="25" fill="#57C7E3" stroke="#23b3d7" stroke-width="2px"/><text text-anchor="middle" pointer-events="none" font-family="sans-serif" dy="1.5625" font-size="25" fill="#FFFFFF"/><text text-anchor="middle" pointer-events="none" font-family="sans-serif" dy="1.5625" font-size="25" fill="#FFFFFF"/><text text-anchor="middle" pointer-events="none" y="0" font-size="10px" fill="#FFFFFF" font-family="sans-serif"> Keanu</text><text text-anchor="middle" pointer-events="none" y="10" font-size="10px" fill="#FFFFFF" font-family="sans-serif"> Reeves</text></g><g class="node" transform="translate(12.199517846152089,-35.27709812497997)"><circle class="outline" cx="0" cy="0" r="25" fill="#F79767" stroke="#f36924" stroke-width="2px"/><text text-anchor="middle" pointer-events="none" font-family="sans-serif" dy="1.5625" font-size="25" fill="#FFFFFF"/><text text-anchor="middle" pointer-events="none" font-family="sans-serif" dy="1.5625" font-size="25" fill="#FFFFFF"/><text text-anchor="middle" pointer-events="none" font-family="sans-serif" dy="1.5625" font-size="25" fill="#FFFFFF"/><text text-anchor="middle" pointer-events="none" y="-5" font-size="10px" fill="#FFFFFF" font-family="sans-serif"> The</text><text text-anchor="middle" pointer-events="none" y="5" font-size="10px" fill="#FFFFFF" font-family="sans-serif"> Devil's</text><text text-anchor="middle" pointer-events="none" y="15" font-size="10px" fill="#FFFFFF" font-family="sans-serif"> Advoc…</text></g><g class="node" transform="translate(-56.557823114272324,18.501733686871237)"><circle class="outline" cx="0" cy="0" r="25" fill="#F79767" stroke="#f36924" stroke-width="2px"/><text text-anchor="middle" pointer-events="none" font-family="sans-serif" dy="1.5625" font-size="25" fill="#FFFFFF"/><text text-anchor="middle" pointer-events="none" font-family="sans-serif" dy="1.5625" font-size="25" fill="#FFFFFF"/><text text-anchor="middle" pointer-events="none" y="0" font-size="10px" fill="#FFFFFF" font-family="sans-serif"> The</text><text text-anchor="middle" pointer-events="none" y="10" font-size="10px" fill="#FFFFFF" font-family="sans-serif"> Replac…</text></g><g class="node" transform="translate(-74.43615144595682,107.04630257783538)"><circle class="outline" cx="0" cy="0" r="25" fill="#F79767" stroke="#f36924" stroke-width="2px"/><text text-anchor="middle" pointer-events="none" font-family="sans-serif" dy="1.5625" font-size="25" fill="#FFFFFF"/><text text-anchor="middle" pointer-events="none" y="5" font-size="10px" fill="#FFFFFF" font-family="sans-serif"> Somethi…</text></g><g class="node" transform="translate(41.26726462721482,268.3158860158898)"><circle class="outline" cx="0" cy="0" r="25" fill="#57C7E3" stroke="#23b3d7" stroke-width="2px"/><text text-anchor="middle" pointer-events="none" font-family="sans-serif" dy="1.5625" font-size="25" fill="#FFFFFF"/><text text-anchor="middle" pointer-events="none" font-family="sans-serif" dy="1.5625" font-size="25" fill="#FFFFFF"/><text text-anchor="middle" pointer-events="none" y="0" font-size="10px" fill="#FFFFFF" font-family="sans-serif"> Laurence</text><text text-anchor="middle" pointer-events="none" y="10" font-size="10px" fill="#FFFFFF" font-family="sans-serif"> Fishbur…</text></g><g class="node" transform="translate(75.30451449057853,186.1434248041085)"><circle class="outline" cx="0" cy="0" r="25" fill="#F79767" stroke="#f36924" stroke-width="2px"/><text text-anchor="middle" pointer-events="none" font-family="sans-serif" dy="1.5625" font-size="25" fill="#FFFFFF"/><text text-anchor="middle" pointer-events="none" font-family="sans-serif" dy="1.5625" font-size="25" fill="#FFFFFF"/><text text-anchor="middle" pointer-events="none" y="0" font-size="10px" fill="#FFFFFF" font-family="sans-serif"> The</text><text text-anchor="middle" pointer-events="none" y="10" font-size="10px" fill="#FFFFFF" font-family="sans-serif"> Matrix</text></g></g></svg>